ply
format ascii 1.0
element vertex 302
property float x
property float y
property float z
property uchar red
property uchar green
property uchar blue
end_header
15.6807 6.67587 16.8445 0 0 0
16.485 6.69376 16.0285 0 0 0
15.453 7.23618 5.68832 0 0 0
15.6952 7.30543 4.15623 0 0 0
16.8379 7.27517 4.1182 0 0 0
18.0458 7.23917 4.159 0 0 0
37.7858 5.95053 18.9287 0 0 0
37.9237 6.03996 17.0494 0 0 0
37.2726 6.56828 6.77724 0 0 0
37.3618 6.64678 5.1456 0 0 0
38.6914 6.61843 4.96338 0 0 0
40.2759 6.56973 5.04639 0 0 0
14.4386 7.58685 16.8223 0 0 0
15.2486 7.6018 16.0285 0 0 0
17.0767 7.51162 17.1354 0 0 0
17.8542 7.53109 16.2538 0 0 0
14.7607 8.02078 6.49644 0 0 0
14.7995 8.10127 4.5925 0 0 0
15.6423 8.10361 4.07564 0 0 0
16.8945 8.06826 4.21595 0 0 0
18.1815 8.03112 4.37904 0 0 0
19.2804 8.01214 4.22031 0 0 0
23.799 7.85607 5.39327 0 0 0
36.0763 6.99901 18.7076 0 0 0
27.6651 7.76854 5.32074 0 0 0
29.0182 7.7363 5.33284 0 0 0
30.5179 7.69367 5.50771 0 0 0
32.0396 7.65075 5.67728 0 0 0
33.5152 7.61275 5.757 0 0 0
34.9987 7.5754 5.81721 0 0 0
36.0925 7.56813 5.3875 0 0 0
37.1539 7.56357 4.9121 0 0 0
38.8006 7.51715 5.09496 0 0 0
40.2833 7.48379 5.0622 0 0 0
13.4798 8.4613 17.3345 0 0 0
10.1792 8.83969 8.50858 0 0 0
11.373 8.81214 8.65255 0 0 0
11.0664 8.91395 5.97367 0 0 0
11.9196 8.91493 5.50021 0 0 0
12.8572 8.9091 5.17252 0 0 0
13.7441 8.90774 4.74672 0 0 0
14.5824 8.91045 4.23273 0 0 0
15.8627 8.87882 4.44528 0 0 0
16.9271 8.86497 4.27502 0 0 0
18.1499 8.83985 4.336 0 0 0
19.3004 8.82108 4.25771 0 0 0
20.5754 8.79405 4.34466 0 0 0
22.105 8.74988 4.77652 0 0 0
23.3769 8.72542 4.79367 0 0 0
24.6284 8.70331 4.75578 0 0 0
25.9556 8.67689 4.79827 0 0 0
27.3275 8.64846 4.87365 0 0 0
28.7447 8.61808 4.97986 0 0 0
30.168 8.58837 5.06404 0 0 0
31.629 8.55729 5.16667 0 0 0
33.0938 8.52705 5.24399 0 0 0
34.5538 8.49814 5.28667 0 0 0
35.8029 8.48313 5.05199 0 0 0
37.1647 8.4619 4.93201 0 0 0
38.8426 8.42261 5.1502 0 0 0
40.579 8.38113 5.39871 0 0 0
41.959 8.36156 5.22278 0 0 0
8.85164 9.53693 12.6126 0 0 0
8.94713 9.59703 10.4917 0 0 0
8.98632 9.6589 8.33649 0 0 0
9.59556 9.67819 7.37491 0 0 0
10.0819 9.7054 6.19932 0 0 0
10.8125 9.71514 5.50827 0 0 0
11.7634 9.71002 5.22359 0 0 0
12.7763 9.70121 5.03598 0 0 0
13.6972 9.6988 4.67209 0 0 0
14.5328 9.702 4.15563 0 0 0
15.6554 9.68752 4.1104 0 0 0
16.9354 9.66418 4.29494 0 0 0
18.1613 9.64504 4.36063 0 0 0
19.2885 9.6325 4.24614 0 0 0
20.5184 9.61463 4.26576 0 0 0
22.0648 9.57961 4.72426 0 0 0
23.3455 9.56069 4.75537 0 0 0
24.6498 9.54126 4.79281 0 0 0
25.9805 9.5212 4.83952 0 0 0
27.3428 9.50025 4.90126 0 0 0
28.7323 9.47869 4.97076 0 0 0
30.1435 9.45685 5.03968 0 0 0
31.5866 9.43422 5.12037 0 0 0
33.0481 9.41151 5.19489 0 0 0
34.5104 9.38959 5.24148 0 0 0
35.7448 9.3795 4.99065 0 0 0
37.1616 9.36116 4.93594 0 0 0
38.8558 9.33047 5.17275 0 0 0
40.4925 9.30347 5.31008 0 0 0
41.8737 9.28905 5.1374 0 0 0
9.24333 10.2806 15.8799 0 0 0
8.97139 10.3495 12.8722 0 0 0
9.01357 10.3985 10.635 0 0 0
9.09568 10.4435 8.56222 0 0 0
9.53768 10.4679 7.26832 0 0 0
10.0088 10.49 6.06652 0 0 0
10.7186 10.4994 5.34011 0 0 0
11.6897 10.4957 5.09631 0 0 0
12.7159 10.4896 4.93561 0 0 0
13.7239 10.4848 4.72477 0 0 0
14.4896 10.4916 4.08916 0 0 0
15.6386 10.4809 4.08924 0 0 0
16.9294 10.4643 4.29196 0 0 0
18.1509 10.4515 4.35108 0 0 0
19.2867 10.4431 4.25013 0 0 0
20.5839 10.4283 4.37104 0 0 0
22.0403 10.4075 4.69514 0 0 0
23.3231 10.3947 4.73009 0 0 0
24.6321 10.3814 4.77495 0 0 0
25.9655 10.3678 4.82593 0 0 0
27.3248 10.3538 4.88413 0 0 0
28.7037 10.3396 4.94024 0 0 0
30.1145 10.3248 5.00951 0 0 0
31.5595 10.3094 5.09339 0 0 0
33.0286 10.2938 5.17802 0 0 0
34.4968 10.2788 5.2325 0 0 0
35.8181 10.2697 5.08488 0 0 0
37.1223 10.2616 4.89781 0 0 0
38.8467 10.2394 5.16996 0 0 0
40.2825 10.2279 5.08404 0 0 0
41.854 10.2123 5.12355 0 0 0
8.96678 11.1345 15.2875 0 0 0
8.78235 11.178 12.48 0 0 0
8.84363 11.211 10.2921 0 0 0
9.09579 11.2359 8.56901 0 0 0
9.44044 11.2568 7.08482 0 0 0
9.91976 11.2725 5.9033 0 0 0
10.699 11.2779 5.31019 0 0 0
11.6625 11.2773 5.05343 0 0 0
12.6915 11.2748 4.89881 0 0 0
13.7218 11.2726 4.7277 0 0 0
14.5962 11.2753 4.27557 0 0 0
15.6006 11.2743 4.03313 0 0 0
17.0578 11.2603 4.50532 0 0 0
18.1915 11.2563 4.42164 0 0 0
19.2466 11.2548 4.19518 0 0 0
20.7542 11.241 4.63386 0 0 0
22.0324 11.2342 4.69045 0 0 0
23.3081 11.2278 4.71553 0 0 0
24.6298 11.2207 4.77867 0 0 0
25.9628 11.2136 4.82923 0 0 0
27.3012 11.2069 4.85947 0 0 0
28.669 11.1999 4.9016 0 0 0
30.0946 11.1918 4.99101 0 0 0
31.5534 11.1834 5.09299 0 0 0
33.0229 11.1753 5.17832 0 0 0
34.5138 11.167 5.26039 0 0 0
35.9672 11.1601 5.26883 0 0 0
37.0453 11.1619 4.81593 0 0 0
38.6752 11.1517 4.98256 0 0 0
40.2255 11.1438 5.02815 0 0 0
9.14607 11.9695 15.6831 0 0 0
8.77316 11.9961 12.4673 0 0 0
8.92447 12.0127 10.4651 0 0 0
9.16022 12.0273 8.70475 0 0 0
9.51339 12.0395 7.23388 0 0 0
10.0119 12.049 6.08525 0 0 0
10.7288 12.0549 5.37205 0 0 0
11.6829 12.0572 5.09696 0 0 0
12.7136 12.0585 4.9445 0 0 0
13.7631 12.0596 4.80568 0 0 0
14.8119 12.061 4.64614 0 0 0
15.6411 12.0654 4.10645 0 0 0
16.7219 12.0666 3.97111 0 0 0
17.9453 12.066 4.04082 0 0 0
19.2871 12.0641 4.26421 0 0 0
20.7903 12.0606 4.69494 0 0 0
22.0464 12.0604 4.71782 0 0 0
23.3291 12.0601 4.75249 0 0 0
24.637 12.0597 4.79579 0 0 0
25.9779 12.0592 4.85695 0 0 0
27.34 12.0587 4.9187 0 0 0
28.7259 12.0582 4.98362 0 0 0
30.1456 12.0575 5.06392 0 0 0
31.5997 12.0567 5.1586 0 0 0
33.0554 12.0562 5.22579 0 0 0
34.5826 12.0551 5.35093 0 0 0
36.1086 12.0544 5.44374 0 0 0
37.3995 12.0561 5.2342 0 0 0
38.5656 12.0591 4.86559 0 0 0
41.0601 12.05 5.96467 0 0 0
9.39655 12.815 13.7904 0 0 0
9.54653 12.8185 11.7514 0 0 0
9.65648 12.8219 9.70617 0 0 0
9.81205 12.8253 7.82408 0 0 0
10.2339 12.8291 6.51486 0 0 0
10.828 12.8332 5.56283 0 0 0
11.751 12.838 5.22689 0 0 0
12.7843 12.843 5.0761 0 0 0
13.8728 12.8483 5.00172 0 0 0
14.9589 12.8535 4.90093 0 0 0
16.0128 12.8587 4.72571 0 0 0
17.0669 12.8639 4.53336 0 0 0
18.3459 12.8697 4.67787 0 0 0
19.629 12.8755 4.79687 0 0 0
20.8639 12.8813 4.81241 0 0 0
22.144 12.8872 4.86813 0 0 0
23.4084 12.8931 4.87351 0 0 0
24.6731 12.8991 4.85345 0 0 0
26.042 12.9054 4.95222 0 0 0
27.4089 12.9117 5.01851 0 0 0
28.8084 12.9181 5.09946 0 0 0
30.2653 12.9248 5.22548 0 0 0
31.7676 12.9316 5.37785 0 0 0
33.3106 12.9386 5.54841 0 0 0
34.8731 12.9457 5.70981 0 0 0
36.4913 12.953 5.90456 0 0 0
38.2497 12.9608 6.22816 0 0 0
9.43358 13.6455 13.8754 0 0 0
9.57284 13.6355 11.8123 0 0 0
9.69961 13.6256 9.79931 0 0 0
9.86526 13.6169 7.93464 0 0 0
10.2949 13.6138 6.63756 0 0 0
10.9149 13.6147 5.73091 0 0 0
11.8429 13.6216 5.40017 0 0 0
12.8922 13.6307 5.27369 0 0 0
13.9809 13.6405 5.19516 0 0 0
15.0819 13.6504 5.11516 0 0 0
16.2101 13.6606 5.05771 0 0 0
17.3755 13.6714 5.03702 0 0 0
18.5887 13.683 5.06682 0 0 0
19.7884 13.6941 5.04878 0 0 0
21.0088 13.7055 5.03709 0 0 0
22.2987 13.7179 5.10253 0 0 0
23.5896 13.7302 5.14099 0 0 0
24.8856 13.7425 5.15924 0 0 0
26.3379 13.7572 5.36634 0 0 0
27.7633 13.7713 5.50276 0 0 0
29.2208 13.7858 5.64994 0 0 0
30.6789 13.8001 5.76595 0 0 0
31.3342 13.8012 4.83807 0 0 0
33.8397 13.8322 6.20951 0 0 0
9.51085 14.4791 14.0455 0 0 0
9.41794 14.4463 11.5003 0 0 0
9.58391 14.4247 9.57398 0 0 0
9.92556 14.4108 8.05905 0 0 0
10.3989 14.4024 6.84244 0 0 0
11.0489 14.4009 5.98655 0 0 0
12.0637 14.413 5.80733 0 0 0
13.1223 14.4264 5.68773 0 0 0
14.2194 14.4409 5.61403 0 0 0
15.3558 14.4565 5.584 0 0 0
16.5104 14.4724 5.55943 0 0 0
17.6675 14.4881 5.51402 0 0 0
18.8813 14.5055 5.53409 0 0 0
20.1658 14.5248 5.63608 0 0 0
21.4486 14.5437 5.70526 0 0 0
22.7621 14.5632 5.79076 0 0 0
24.0652 14.582 5.83172 0 0 0
25.4195 14.6021 5.91728 0 0 0
26.7852 14.6222 5.98892 0 0 0
28.1899 14.6431 6.08417 0 0 0
29.6279 14.6647 6.19345 0 0 0
31.0833 14.6864 6.29457 0 0 0
31.3228 14.6717 4.83084 0 0 0
8.97001 15.2789 12.9102 0 0 0
9.05896 15.2393 10.7685 0 0 0
9.3059 15.2103 9.02317 0 0 0
9.66848 15.189 7.5631 0 0 0
10.2882 15.1827 6.63787 0 0 0
12.9806 15.29 9.58499 0 0 0
13.4111 15.2725 8.25845 0 0 0
14.0158 15.2649 7.27653 0 0 0
14.751 15.2645 6.53966 0 0 0
15.7077 15.2756 6.18475 0 0 0
16.8105 15.2939 6.06091 0 0 0
17.9883 15.3155 6.03751 0 0 0
19.2537 15.341 6.12699 0 0 0
20.4936 15.3646 6.14728 0 0 0
21.7511 15.3885 6.16723 0 0 0
23.0153 15.4123 6.17003 0 0 0
24.336 15.4382 6.22822 0 0 0
25.7059 15.4658 6.3272 0 0 0
27.0881 15.4933 6.41285 0 0 0
28.5124 15.5222 6.52556 0 0 0
29.9606 15.5515 6.63902 0 0 0
15.0894 16.2018 11.3105 0 0 0
15.2712 16.1589 9.50641 0 0 0
15.719 16.1357 8.21988 0 0 0
16.3714 16.1272 7.3119 0 0 0
17.1933 16.1305 6.6989 0 0 0
18.2887 16.1517 6.52828 0 0 0
19.4989 16.1798 6.51981 0 0 0
20.7548 16.2102 6.55609 0 0 0
22.0434 16.2419 6.6137 0 0 0
23.3234 16.2723 6.63024 0 0 0
24.6761 16.3064 6.72433 0 0 0
26.0563 16.3415 6.82722 0 0 0
27.4618 16.3772 6.93428 0 0 0
28.8861 16.4132 7.03592 0 0 0
17.4914 17.1076 11.2914 0 0 0
17.7061 17.0568 9.57231 0 0 0
18.222 17.0327 8.40225 0 0 0
18.8926 17.022 7.50804 0 0 0
19.8699 17.0363 7.11082 0 0 0
21.0786 17.0687 7.06127 0 0 0
22.3776 17.1073 7.12337 0 0 0
23.7062 17.1472 7.20025 0 0 0
25.0505 17.1872 7.26995 0 0 0
26.4852 17.2331 7.43769 0 0 0
