ply
format ascii 1.0
element vertex 268
property float x
property float y
property float z
property uchar red
property uchar green
property uchar blue
end_header
17.6148 6.96602 6.08065 0 0 0
16.5528 7.82325 6.0146 0 0 0
17.6199 7.82267 6.05603 0 0 0
18.6973 7.82684 6.01517 0 0 0
19.7366 7.81258 6.29342 0 0 0
36.8014 7.83515 6.40121 0 0 0
37.8272 7.86757 5.86788 0 0 0
38.8809 7.86909 5.87249 0 0 0
39.9332 7.87092 5.87145 0 0 0
13.1421 8.62082 7.08437 0 0 0
14.275 8.63601 6.8066 0 0 0
15.4615 8.67036 6.14109 0 0 0
16.5198 8.66618 6.25499 0 0 0
17.5776 8.66127 6.38373 0 0 0
18.6562 8.66394 6.35907 0 0 0
19.7678 8.68152 6.03228 0 0 0
20.8062 8.66781 6.33946 0 0 0
21.8793 8.66967 6.33108 0 0 0
22.9521 8.67191 6.31489 0 0 0
24.0229 8.67368 6.30823 0 0 0
25.0913 8.67439 6.32307 0 0 0
26.1594 8.6753 6.33386 0 0 0
27.2268 8.67628 6.34337 0 0 0
28.2938 8.67769 6.34381 0 0 0
29.3595 8.67823 6.3622 0 0 0
30.4247 8.6784 6.38779 0 0 0
31.4895 8.68083 6.36769 0 0 0
32.5534 8.68135 6.38633 0 0 0
33.6164 8.68272 6.38755 0 0 0
34.6785 8.68411 6.38844 0 0 0
35.7398 8.6854 6.39124 0 0 0
36.7742 8.71086 5.90235 0 0 0
37.8467 8.69823 6.18823 0 0 0
38.9076 8.69669 6.24881 0 0 0
39.9436 8.70989 6.00889 0 0 0
40.9888 8.71529 5.92774 0 0 0
42.1462 8.66696 6.94172 0 0 0
10.9104 9.47115 7.37932 0 0 0
12.0859 9.49065 6.93133 0 0 0
13.2158 9.50198 6.68206 0 0 0
14.338 9.51293 6.44185 0 0 0
15.4677 9.52744 6.11473 0 0 0
16.5065 9.51845 6.36031 0 0 0
17.574 9.51692 6.42437 0 0 0
18.6542 9.51946 6.38884 0 0 0
19.7689 9.53498 6.03664 0 0 0
20.8351 9.53457 6.07307 0 0 0
21.906 9.5363 6.05731 0 0 0
22.9758 9.53808 6.04013 0 0 0
24.0428 9.53899 6.04436 0 0 0
25.1104 9.54081 6.02636 0 0 0
26.176 9.54214 6.02018 0 0 0
27.2398 9.54258 6.03563 0 0 0
28.3041 9.54451 6.01478 0 0 0
29.3667 9.54583 6.00878 0 0 0
30.4283 9.54697 6.00711 0 0 0
31.489 9.54825 6.00202 0 0 0
32.5487 9.54943 5.99939 0 0 0
33.6075 9.55063 5.99619 0 0 0
34.6652 9.55191 5.99113 0 0 0
35.7218 9.5533 5.98325 0 0 0
36.7762 9.55557 5.95374 0 0 0
37.8522 9.543 6.28808 0 0 0
38.9089 9.54442 6.27959 0 0 0
39.9633 9.54644 6.25603 0 0 0
40.9854 9.56182 5.905 0 0 0
42.0862 9.54342 6.38263 0 0 0
43.2544 9.50432 7.36821 0 0 0
9.72487 10.323 7.83974 0 0 0
10.9557 10.3458 7.1645 0 0 0
12.1213 10.3599 6.75586 0 0 0
13.2507 10.369 6.49835 0 0 0
14.3698 10.3774 6.26408 0 0 0
15.4728 10.3836 6.09618 0 0 0
16.5329 10.3812 6.19236 0 0 0
17.5762 10.3744 6.42133 0 0 0
18.6354 10.3708 6.5539 0 0 0
19.7809 10.3914 5.94456 0 0 0
20.8466 10.3912 5.97489 0 0 0
21.9135 10.3914 5.99028 0 0 0
22.9817 10.3924 5.98201 0 0 0
24.0501 10.3939 5.95624 0 0 0
25.1149 10.3943 5.96571 0 0 0
26.1803 10.3956 5.94962 0 0 0
27.2441 10.3965 5.94374 0 0 0
28.3062 10.3967 5.95792 0 0 0
29.3679 10.3973 5.96178 0 0 0
30.4289 10.3981 5.96178 0 0 0
31.489 10.3987 5.96489 0 0 0
32.5481 10.3995 5.96154 0 0 0
33.6064 10.4002 5.96156 0 0 0
34.6629 10.4018 5.93287 0 0 0
35.7133 10.4069 5.7985 0 0 0
36.7746 10.4031 5.93782 0 0 0
37.8577 10.3892 6.38919 0 0 0
38.9097 10.3927 6.30349 0 0 0
39.9459 10.4012 6.06223 0 0 0
40.9847 10.4068 5.91085 0 0 0
42.0578 10.4006 6.12465 0 0 0
43.2258 10.3686 7.13289 0 0 0
9.74478 11.1966 7.7581 0 0 0
10.984 11.2145 7.03519 0 0 0
12.1452 11.2244 6.6424 0 0 0
13.2765 11.2315 6.36618 0 0 0
14.3807 11.2356 6.21247 0 0 0
15.4867 11.2406 6.01994 0 0 0
16.5502 11.2394 6.08659 0 0 0
17.6229 11.2397 6.08852 0 0 0
18.7031 11.2416 6.02235 0 0 0
19.8057 11.2488 5.73994 0 0 0
20.8563 11.2455 5.89479 0 0 0
21.9243 11.246 5.88683 0 0 0
22.9915 11.2466 5.87649 0 0 0
24.0575 11.2472 5.8673 0 0 0
25.1222 11.2477 5.85992 0 0 0
26.1838 11.2473 5.89436 0 0 0
27.2485 11.2487 5.84789 0 0 0
28.3099 11.2491 5.84854 0 0 0
29.3705 11.2495 5.84491 0 0 0
30.4302 11.2501 5.83626 0 0 0
31.4888 11.2506 5.82896 0 0 0
32.5464 11.251 5.82944 0 0 0
33.6039 11.2505 5.86231 0 0 0
34.659 11.2518 5.8265 0 0 0
35.7089 11.255 5.70819 0 0 0
36.7746 11.2495 5.95108 0 0 0
37.8287 11.25 5.94428 0 0 0
38.8833 11.25 5.95882 0 0 0
39.9329 11.2512 5.92149 0 0 0
40.9773 11.2534 5.84617 0 0 0
42.0442 11.2498 6.009 0 0 0
43.2066 11.2267 6.97954 0 0 0
10.9825 12.0785 7.05665 0 0 0
12.1375 12.0842 6.69709 0 0 0
13.2586 12.0876 6.48101 0 0 0
14.364 12.0901 6.3264 0 0 0
15.4738 12.0934 6.11648 0 0 0
16.5756 12.0964 5.92561 0 0 0
17.6619 12.0982 5.81246 0 0 0
18.7377 12.0991 5.75746 0 0 0
19.7896 12.0969 5.89526 0 0 0
20.8584 12.097 5.88784 0 0 0
21.9272 12.0973 5.86904 0 0 0
22.9943 12.0975 5.85554 0 0 0
24.0603 12.0978 5.84107 0 0 0
25.1249 12.0979 5.8295 0 0 0
26.1878 12.0979 5.82893 0 0 0
27.2499 12.098 5.82631 0 0 0
28.3111 12.098 5.82296 0 0 0
29.3713 12.0981 5.8196 0 0 0
30.4304 12.098 5.82253 0 0 0
31.4888 12.0977 5.84169 0 0 0
32.5463 12.0979 5.83274 0 0 0
33.6025 12.0983 5.80878 0 0 0
34.6586 12.098 5.82771 0 0 0
35.7101 12.0992 5.74912 0 0 0
36.7556 12.1015 5.60647 0 0 0
37.8242 12.097 5.88758 0 0 0
38.8782 12.0968 5.90407 0 0 0
39.9093 12.1007 5.65368 0 0 0
40.9754 12.0978 5.8398 0 0 0
42.0843 12.0888 6.40482 0 0 0
43.3084 12.0654 7.87809 0 0 0
10.9537 12.9415 7.21565 0 0 0
12.1234 12.9443 6.78566 0 0 0
13.2453 12.9456 6.56987 0 0 0
14.3475 12.9462 6.43914 0 0 0
15.4491 12.947 6.28887 0 0 0
16.5464 12.9477 6.13964 0 0 0
17.6327 12.9481 6.04277 0 0 0
18.7057 12.9478 6.02921 0 0 0
19.7791 12.9477 6.00059 0 0 0
20.8517 12.9476 5.96607 0 0 0
21.9222 12.9475 5.9365 0 0 0
22.9893 12.9471 5.93052 0 0 0
24.0556 12.9469 5.91988 0 0 0
25.1212 12.9466 5.90316 0 0 0
26.1848 12.9463 5.90166 0 0 0
27.2475 12.9459 5.89937 0 0 0
28.3094 12.9456 5.89313 0 0 0
29.3701 12.9453 5.89388 0 0 0
30.43 12.945 5.87848 0 0 0
31.4888 12.9448 5.86614 0 0 0
32.5465 12.9444 5.8597 0 0 0
33.6034 12.9441 5.86439 0 0 0
34.6589 12.9438 5.85051 0 0 0
35.7133 12.9435 5.83938 0 0 0
36.7656 12.9434 5.80717 0 0 0
37.8141 12.9436 5.74168 0 0 0
38.8659 12.9431 5.75053 0 0 0
39.9312 12.9414 5.9284 0 0 0
41.0088 12.939 6.20664 0 0 0
42.1797 12.9301 7.32964 0 0 0
43.537 12.9104 9.87904 0 0 0
12.0621 13.806 7.12646 0 0 0
13.1897 13.8051 6.89761 0 0 0
14.3036 13.8042 6.71662 0 0 0
15.4037 13.8033 6.59402 0 0 0
16.4975 13.8025 6.48994 0 0 0
17.5841 13.8017 6.4167 0 0 0
18.6655 13.801 6.36574 0 0 0
19.7406 13.8002 6.35347 0 0 0
20.8187 13.7995 6.29978 0 0 0
21.89 13.7987 6.29757 0 0 0
22.9615 13.798 6.2812 0 0 0
24.0286 13.7973 6.30943 0 0 0
25.1003 13.7965 6.25817 0 0 0
26.1684 13.7958 6.23861 0 0 0
27.234 13.7951 6.24641 0 0 0
28.2998 13.7944 6.22421 0 0 0
29.3642 13.7936 6.20691 0 0 0
30.4273 13.7929 6.18311 0 0 0
31.4891 13.7921 6.11944 0 0 0
32.5495 13.7914 6.13257 0 0 0
33.6095 13.7907 6.15738 0 0 0
34.6685 13.79 6.15979 0 0 0
35.7298 13.7894 6.23759 0 0 0
36.7888 13.7887 6.2591 0 0 0
37.8544 13.7881 6.38999 0 0 0
38.9423 13.7876 6.79895 0 0 0
40.2083 13.7887 9.23633 0 0 0
14.1052 14.6752 7.92334 0 0 0
15.3106 14.6674 7.2049 0 0 0
16.4089 14.6655 7.11418 0 0 0
17.501 14.6638 7.04774 0 0 0
18.5897 14.6622 6.99037 0 0 0
19.673 14.6608 6.96146 0 0 0
20.7558 14.6594 6.92304 0 0 0
21.8379 14.6578 6.87331 0 0 0
22.914 14.6567 6.87243 0 0 0
23.9914 14.6553 6.8412 0 0 0
25.0684 14.6538 6.7918 0 0 0
26.1418 14.6526 6.77444 0 0 0
27.2137 14.6514 6.76087 0 0 0
28.2848 14.6501 6.73856 0 0 0
29.3549 14.6486 6.69226 0 0 0
30.4232 14.6471 6.64862 0 0 0
31.4886 14.6376 5.7246 0 0 0
32.554 14.6439 6.5325 0 0 0
33.6239 14.6455 6.82592 0 0 0
16.3398 15.5363 7.60333 0 0 0
17.4492 15.5321 7.44605 0 0 0
18.5413 15.5297 7.39301 0 0 0
19.6285 15.5277 7.36634 0 0 0
20.7116 15.5263 7.36464 0 0 0
21.7938 15.5247 7.36179 0 0 0
22.8782 15.5226 7.32184 0 0 0
23.9613 15.5203 7.27452 0 0 0
25.0429 15.5179 7.22043 0 0 0
26.1196 15.5165 7.22291 0 0 0
27.196 15.5149 7.21288 0 0 0
28.272 15.5128 7.17858 0 0 0
29.3468 15.5104 7.12194 0 0 0
30.4195 15.508 7.06562 0 0 0
31.4902 15.5072 7.10617 0 0 0
32.5856 15.5436 9.27824 0 0 0
18.4877 16.4048 7.83894 0 0 0
19.58 16.4021 7.80667 0 0 0
20.6681 16.4001 7.7997 0 0 0
21.7547 16.3983 7.79822 0 0 0
22.8423 16.3957 7.77136 0 0 0
23.9298 16.3928 7.72758 0 0 0
25.0134 16.3906 7.71497 0 0 0
26.0954 16.3888 7.71313 0 0 0
27.1772 16.3864 7.69195 0 0 0
28.258 16.3837 7.65819 0 0 0
29.3371 16.3811 7.62748 0 0 0
30.4027 16.4122 8.90541 0 0 0
