ply
format ascii 1.0
element vertex 166
property float x
property float y
property float z
property uchar red
property uchar green
property uchar blue
end_header
40.6597 6.74479 6.68488 0 0 0
40.6648 6.69366 7.67954 0 0 0
37.8337 7.40806 6.26891 0 0 0
41.1855 7.55477 6.60795 0 0 0
41.1951 7.50599 7.596 0 0 0
38.4042 6.97711 15.4746 0 0 0
40.9866 7.08937 15.7513 0 0 0
40.9859 7.03769 16.7873 0 0 0
16.6133 7.32781 6.68059 0 0 0
18.3847 7.35525 7.61022 0 0 0
37.7757 8.20627 6.31112 0 0 0
42.3477 8.38792 6.40085 0 0 0
42.9911 8.37382 7.24017 0 0 0
43.2665 8.34121 8.15316 0 0 0
43.5321 8.30816 9.06707 0 0 0
43.5295 8.26107 10.0462 0 0 0
38.3274 7.78641 15.5286 0 0 0
41.4323 7.90703 15.6466 0 0 0
41.5127 7.86205 16.6522 0 0 0
15.6234 8.26241 6.87804 0 0 0
18.9301 8.33883 7.55361 0 0 0
31.7272 8.80703 6.42983 0 0 0
37.8681 9.0117 6.32428 0 0 0
42.6488 9.16519 6.36892 0 0 0
43.1345 9.14086 7.23877 0 0 0
43.4561 9.10976 8.13973 0 0 0
43.625 9.07214 9.07445 0 0 0
43.7877 9.03419 10.0117 0 0 0
43.8107 8.98999 10.9861 0 0 0
43.8929 8.94826 11.9488 0 0 0
43.8474 8.90057 12.9503 0 0 0
43.8609 8.85535 13.9402 0 0 0
43.6634 8.80008 14.9989 0 0 0
43.3233 8.73768 16.1118 0 0 0
15.7642 9.24936 6.89333 0 0 0
24.8315 9.48476 6.5735 0 0 0
32.4285 9.68072 6.33438 0 0 0
38.9766 9.84908 6.14041 0 0 0
42.6877 9.92856 6.39048 0 0 0
43.1811 9.90218 7.25815 0 0 0
43.4977 9.86999 8.15968 0 0 0
43.6093 9.83074 9.10757 0 0 0
43.6383 9.78847 10.0782 0 0 0
43.6163 9.74419 11.066 0 0 0
43.6482 9.70164 12.0445 0 0 0
43.6533 9.65793 13.0346 0 0 0
43.7365 9.61693 14.0064 0 0 0
43.7309 9.57244 15.0081 0 0 0
43.4311 9.51643 16.1077 0 0 0
17.701 10.2755 6.61752 0 0 0
25.4436 10.4063 6.50293 0 0 0
32.4944 10.5273 6.35502 0 0 0
38.6392 10.6322 6.23656 0 0 0
42.6615 10.6896 6.42534 0 0 0
43.1117 10.6598 7.30254 0 0 0
43.4909 10.6282 8.19061 0 0 0
43.5118 10.5874 9.16016 0 0 0
43.5953 10.5482 10.1184 0 0 0
43.7222 10.5099 11.0681 0 0 0
43.7939 10.4701 12.0346 0 0 0
43.8193 10.4288 13.0174 0 0 0
43.8104 10.3864 14.0144 0 0 0
43.7289 10.3416 15.0385 0 0 0
43.4381 10.2903 16.1355 0 0 0
16.9003 11.2287 6.78488 0 0 0
24.7395 11.2976 6.65968 0 0 0
32.3342 11.3692 6.41714 0 0 0
40.0802 11.4496 5.98705 0 0 0
42.3388 11.4463 6.52109 0 0 0
42.7675 11.4139 7.40636 0 0 0
43.1238 11.3804 8.30335 0 0 0
43.3035 11.3439 9.2392 0 0 0
43.3968 11.3057 10.1973 0 0 0
43.502 11.2677 11.1549 0 0 0
43.5672 11.2289 12.1257 0 0 0
43.537 11.188 13.1267 0 0 0
43.5065 11.1469 14.1333 0 0 0
43.5516 11.1072 15.1224 0 0 0
43.2932 11.0609 16.2113 0 0 0
17.7242 12.2057 6.68847 0 0 0
25.3192 12.2093 6.59435 0 0 0
32.7604 12.2179 6.37145 0 0 0
39.4322 12.2268 6.14358 0 0 0
42.1608 12.2096 6.5873 0 0 0
42.6088 12.1754 7.47026 0 0 0
43.0244 12.1411 8.35544 0 0 0
43.1947 12.1048 9.29462 0 0 0
43.2755 12.0675 10.2571 0 0 0
43.2801 12.0293 11.2422 0 0 0
43.3653 11.9919 12.2101 0 0 0
43.3878 11.9536 13.1987 0 0 0
43.3613 11.9146 14.2058 0 0 0
43.1608 11.8733 15.2716 0 0 0
42.7345 11.8289 16.4182 0 0 0
16.8872 13.1723 6.86226 0 0 0
25.4899 13.112 6.59967 0 0 0
32.5714 13.0603 6.43891 0 0 0
38.3498 13.0153 6.38531 0 0 0
40.1989 12.9769 7.02109 0 0 0
40.9696 12.9398 7.8553 0 0 0
41.9414 12.9033 8.63163 0 0 0
42.5374 12.8671 9.4811 0 0 0
42.8678 12.831 10.3885 0 0 0
43.0892 12.7948 11.3217 0 0 0
43.2098 12.7584 12.2821 0 0 0
43.2435 12.7217 13.2693 0 0 0
43.203 12.6847 14.2823 0 0 0
42.881 12.6466 15.3871 0 0 0
42.4375 12.6076 16.5426 0 0 0
15.7216 14.1564 7.09026 0 0 0
34.2246 13.9247 5.11479 0 0 0
34.4923 13.8853 6.11676 0 0 0
35.8098 13.836 6.91268 0 0 0
36.6315 13.792 7.78737 0 0 0
37.2398 13.7503 8.69546 0 0 0
38.0131 13.7075 9.55757 0 0 0
38.724 13.6657 10.4225 0 0 0
39.3466 13.6249 11.2988 0 0 0
39.7872 13.5857 12.2138 0 0 0
40.3664 13.5457 13.0862 0 0 0
40.5635 13.5084 14.0589 0 0 0
40.2756 13.474 15.175 0 0 0
40.185 13.4381 16.2422 0 0 0
13.9326 15.172 7.42104 0 0 0
23.3618 14.9547 7.04045 0 0 0
30.0725 14.7934 6.96664 0 0 0
34.8146 14.6721 7.13925 0 0 0
35.2179 14.63 8.11095 0 0 0
35.5288 14.5896 9.09898 0 0 0
35.7776 14.5504 10.0994 0 0 0
36.0136 14.5114 11.1024 0 0 0
36.16 14.4738 12.1278 0 0 0
36.244 14.4371 13.1713 0 0 0
36.2775 14.4012 14.2317 0 0 0
36.2366 14.3661 15.3177 0 0 0
35.9328 14.3348 16.4873 0 0 0
34.9754 14.3123 17.8693 0 0 0
12.286 16.2138 7.72964 0 0 0
21.4519 15.9258 7.40961 0 0 0
28.2783 15.7063 7.33272 0 0 0
33.6705 15.5289 7.39566 0 0 0
34.0692 15.4851 8.38065 0 0 0
34.3327 15.4449 9.39145 0 0 0
34.5893 15.4049 10.4032 0 0 0
34.8183 15.3656 11.4209 0 0 0
34.9265 15.3292 12.469 0 0 0
34.9955 15.2938 13.5302 0 0 0
35.0003 15.2597 14.6124 0 0 0
34.9277 15.2273 15.7218 0 0 0
16.9648 17.0207 8.23096 0 0 0
25.4943 16.6842 7.88376 0 0 0
32.2012 16.4166 7.71671 0 0 0
32.8474 16.3623 8.66623 0 0 0
33.1459 16.3202 9.6827 0 0 0
33.4077 16.2794 10.7062 0 0 0
33.5942 16.2412 11.7471 0 0 0
33.6713 16.2066 12.8166 0 0 0
33.7327 16.1723 13.8937 0 0 0
33.7617 16.139 14.9835 0 0 0
30.6913 17.3309 8.04673 0 0 0
30.8655 17.293 9.11045 0 0 0
30.9864 17.2574 10.1873 0 0 0
31.0929 17.2223 11.2699 0 0 0
31.1845 17.1877 12.3591 0 0 0
31.2672 17.1535 13.4538 0 0 0
31.3221 17.1203 14.5593 0 0 0
