ply
format ascii 1.0
element vertex 204
property float x
property float y
property float z
property uchar red
property uchar green
property uchar blue
end_header
16.2235 6.72248 6.71158 0 0 0
14.5684 7.56147 7.23786 0 0 0
14.5436 7.64911 6.18754 0 0 0
16.4564 7.59171 5.78778 0 0 0
37.6265 6.53847 6.44071 0 0 0
38.0069 6.61477 5.29585 0 0 0
15.3646 7.4245 18.5346 0 0 0
15.0873 7.53582 17.2714 0 0 0
16.5778 7.51284 16.8229 0 0 0
38.3714 6.63536 17.077 0 0 0
14.0495 8.38479 7.10498 0 0 0
14.0876 8.4646 6.08213 0 0 0
16.9877 8.35575 6.01639 0 0 0
36.5259 7.57253 6.20081 0 0 0
37.6629 7.60195 5.2681 0 0 0
14.4233 8.31476 18.1389 0 0 0
14.522 8.39421 17.0621 0 0 0
16.7506 8.33227 16.9554 0 0 0
36.9907 7.61853 17.9587 0 0 0
36.8885 7.72611 16.5973 0 0 0
13.8945 9.17756 7.10102 0 0 0
13.9245 9.25512 6.07701 0 0 0
16.9036 9.16415 6.04092 0 0 0
21.3856 8.99358 6.42648 0 0 0
24.8345 8.88729 6.39743 0 0 0
28.4349 8.77815 6.34342 0 0 0
32.2266 8.66437 6.27149 0 0 0
36.1261 8.55076 6.15305 0 0 0
37.0048 8.59948 5.15676 0 0 0
14.154 9.14816 18.0636 0 0 0
14.2747 9.22382 17.0002 0 0 0
17.5651 9.11823 17.3789 0 0 0
18.7246 9.13766 16.7452 0 0 0
16.4269 9.34947 14.6105 0 0 0
14.257 9.54955 12.5939 0 0 0
9.38003 9.88974 9.54449 0 0 0
9.97563 9.93315 8.76624 0 0 0
9.34994 10.0401 7.51716 0 0 0
9.18687 10.122 6.46086 0 0 0
11.3069 10.089 6.22973 0 0 0
13.5423 10.0535 5.9962 0 0 0
16.9488 9.96485 6.10846 0 0 0
19.1336 9.93926 5.75686 0 0 0
22.731 9.8511 5.80139 0 0 0
26.0919 9.77918 5.70148 0 0 0
29.7127 9.70061 5.6087 0 0 0
33.5703 9.61698 5.50874 0 0 0
36.8138 9.56556 5.16866 0 0 0
41.6038 9.45325 5.15919 0 0 0
9.46136 10.1966 15.8695 0 0 0
9.38999 10.2754 14.7756 0 0 0
9.23294 10.3576 13.6528 0 0 0
9.20837 10.4327 12.6004 0 0 0
9.15047 10.5087 11.5424 0 0 0
9.11961 10.5828 10.5049 0 0 0
9.07538 10.657 9.47045 0 0 0
9.02875 10.7306 8.44386 0 0 0
8.92188 10.8062 7.40305 0 0 0
8.93469 10.876 6.41643 0 0 0
10.4596 10.8832 5.9768 0 0 0
13.0818 10.8483 5.88786 0 0 0
15.6574 10.819 5.72993 0 0 0
18.7509 10.7734 5.6871 0 0 0
22.0472 10.7246 5.64424 0 0 0
25.4255 10.6776 5.55897 0 0 0
28.8919 10.6321 5.43106 0 0 0
32.6586 10.581 5.31705 0 0 0
36.9141 10.5183 5.25783 0 0 0
40.9969 10.4674 5.0694 0 0 0
9.08484 10.8382 17.8763 0 0 0
9.18939 10.907 16.8551 0 0 0
9.1755 10.9802 15.7829 0 0 0
9.12963 11.0541 14.7042 0 0 0
9.06433 11.1281 13.6261 0 0 0
9.02476 11.2004 12.569 0 0 0
8.9838 11.2723 11.5203 0 0 0
8.95098 11.3432 10.4837 0 0 0
8.89946 11.4142 9.44822 0 0 0
8.85408 11.4843 8.42403 0 0 0
8.82582 11.5533 7.41504 0 0 0
8.77377 11.6226 6.40542 0 0 0
10.1891 11.6439 5.92921 0 0 0
12.8185 11.6288 5.84725 0 0 0
15.6922 11.6099 5.79329 0 0 0
18.339 11.6018 5.60744 0 0 0
21.7807 11.5741 5.61624 0 0 0
25.0301 11.5567 5.49705 0 0 0
28.6034 11.5348 5.40621 0 0 0
32.3951 11.5119 5.30427 0 0 0
36.3522 11.4899 5.17061 0 0 0
40.4235 11.4704 4.9875 0 0 0
9.05612 11.6137 17.9124 0 0 0
9.03471 11.6844 16.8294 0 0 0
8.97308 11.7559 15.7359 0 0 0
8.92557 11.8263 14.6589 0 0 0
8.90107 11.8953 13.6016 0 0 0
8.84792 11.9647 12.5404 0 0 0
8.7942 12.0335 11.4881 0 0 0
8.74923 12.1014 10.4486 0 0 0
8.74702 12.1676 9.43532 0 0 0
8.74728 12.2332 8.43073 0 0 0
8.73993 12.2986 7.43079 0 0 0
8.66935 12.3649 6.41512 0 0 0
10.1638 12.3941 5.96914 0 0 0
12.8584 12.3978 5.91137 0 0 0
15.5426 12.4054 5.79495 0 0 0
18.6324 12.408 5.75541 0 0 0
21.9174 12.4108 5.71374 0 0 0
25.3985 12.414 5.6643 0 0 0
29.0387 12.4188 5.59046 0 0 0
32.9511 12.4235 5.51913 0 0 0
37.1643 12.428 5.44971 0 0 0
41.9248 12.4289 5.43615 0 0 0
8.89503 12.3918 17.8814 0 0 0
8.89918 12.4586 16.8129 0 0 0
8.88987 12.5253 15.7461 0 0 0
8.95242 12.5898 14.7214 0 0 0
9.0774 12.6527 13.7317 0 0 0
9.08471 12.7175 12.6948 0 0 0
9.15295 12.7808 11.6919 0 0 0
9.18141 12.8443 10.6786 0 0 0
9.18398 12.9079 9.66179 0 0 0
9.22677 12.9703 8.66853 0 0 0
9.25688 13.0326 7.677 0 0 0
9.03972 13.0981 6.60065 0 0 0
10.3839 13.1402 6.09706 0 0 0
13.1749 13.1637 6.07154 0 0 0
16.1516 13.1884 6.05097 0 0 0
19.3148 13.2146 6.02974 0 0 0
22.2812 13.2471 5.88236 0 0 0
26.2401 13.2725 5.97445 0 0 0
29.8329 13.3066 5.87926 0 0 0
34.6977 13.3332 6.06651 0 0 0
9.25393 13.1594 18.1138 0 0 0
9.44611 13.2209 17.1334 0 0 0
9.31355 13.2865 16.0001 0 0 0
9.35701 13.3492 14.961 0 0 0
9.35641 13.412 13.9088 0 0 0
9.28399 13.4751 12.8328 0 0 0
9.30569 13.5366 11.8073 0 0 0
9.28341 13.5982 10.7706 0 0 0
9.23877 13.6594 9.73323 0 0 0
9.20005 13.72 8.70695 0 0 0
9.16284 13.7801 7.68978 0 0 0
9.20153 13.8393 6.7092 0 0 0
10.9017 13.8885 6.33222 0 0 0
13.6397 13.9344 6.28366 0 0 0
16.5848 13.9828 6.24856 0 0 0
21.2817 14.0284 6.72172 0 0 0
24.4805 14.0843 6.62609 0 0 0
28.0098 14.1434 6.56566 0 0 0
30.3459 14.2087 6.08727 0 0 0
9.34526 13.935 18.2109 0 0 0
9.35133 13.9962 17.1371 0 0 0
9.34906 14.057 16.0676 0 0 0
9.33758 14.1173 15.002 0 0 0
9.33974 14.1771 13.9512 0 0 0
9.34333 14.2365 12.909 0 0 0
9.3305 14.2954 11.8676 0 0 0
9.36008 14.3538 10.8522 0 0 0
9.38333 14.4118 9.84132 0 0 0
9.41567 14.4695 8.84119 0 0 0
9.45716 14.5267 7.85143 0 0 0
12.0724 14.5899 7.82495 0 0 0
14.6202 14.6559 7.72004 0 0 0
16.9235 14.7239 7.478 0 0 0
19.188 14.7944 7.17717 0 0 0
21.8549 14.8694 6.96282 0 0 0
25.173 14.9512 6.8997 0 0 0
28.7339 15.0384 6.84272 0 0 0
11.5182 14.8983 16.0768 0 0 0
11.2163 14.9546 14.8594 0 0 0
11.4051 15.0137 13.8761 0 0 0
11.5707 15.0724 12.8863 0 0 0
11.9696 15.1329 11.9985 0 0 0
12.4323 15.1941 11.1352 0 0 0
12.8217 15.2547 10.2395 0 0 0
13.3673 15.3171 9.40256 0 0 0
14.1271 15.3822 8.64019 0 0 0
15.4996 15.4551 8.08863 0 0 0
17.4974 15.5372 7.73085 0 0 0
19.7291 15.6245 7.4134 0 0 0
22.2946 15.7187 7.16113 0 0 0
25.7765 15.8289 7.14614 0 0 0
29.2852 15.9433 7.06829 0 0 0
15.2337 15.8574 15.6328 0 0 0
15.2087 15.9138 14.5131 0 0 0
15.592 15.9769 13.5743 0 0 0
15.7673 16.0363 12.5495 0 0 0
16.2048 16.1004 11.6328 0 0 0
16.5342 16.1625 10.6722 0 0 0
17.0437 16.2283 9.77918 0 0 0
17.5461 16.2941 8.87966 0 0 0
18.4797 16.3693 8.12706 0 0 0
20.2282 16.4631 7.63606 0 0 0
22.8767 16.5788 7.4064 0 0 0
26.2387 16.7138 7.34876 0 0 0
19.5516 16.8951 15.2965 0 0 0
19.701 16.9546 14.2128 0 0 0
19.9963 17.0179 13.1923 0 0 0
20.1954 17.0784 12.1361 0 0 0
20.7128 17.148 11.2026 0 0 0
21.0324 17.2118 10.1938 0 0 0
21.7552 17.2878 9.32695 0 0 0
