ply
format ascii 1.0
element vertex 226
property float x
property float y
property float z
property uchar red
property uchar green
property uchar blue
end_header
14.3728 6.56892 6.86771 0 0 0
14.8883 6.56904 5.99432 0 0 0
14.465 6.99293 18.66 0 0 0
14.6711 7.01407 17.6424 0 0 0
16.8873 6.91415 17.4545 0 0 0
34.9076 6.06952 16.9848 0 0 0
36.6031 6.0108 16.2587 0 0 0
13.8639 7.35356 7.75019 0 0 0
13.6266 7.39831 6.65151 0 0 0
14.8401 7.36053 5.99218 0 0 0
33.9465 6.46473 5.50275 0 0 0
36.501 6.36176 4.88543 0 0 0
13.9544 7.8368 18.4499 0 0 0
14.5178 7.83841 17.59 0 0 0
16.8458 7.74985 17.4502 0 0 0
34.2369 7.0422 18.0557 0 0 0
34.0989 7.08483 16.7244 0 0 0
36.541 7.00097 16.2533 0 0 0
12.1412 8.22228 7.21542 0 0 0
13.2848 8.19518 6.55883 0 0 0
14.9197 8.14507 6.02766 0 0 0
17.8235 8.03536 5.82576 0 0 0
20.9631 7.91613 5.62965 0 0 0
24.34 7.78751 5.43237 0 0 0
28.379 7.62987 5.33291 0 0 0
33.0418 7.44556 5.30091 0 0 0
36.4779 7.32041 4.89478 0 0 0
11.4499 8.75684 17.37 0 0 0
11.0886 8.79931 16.1488 0 0 0
10.8768 8.83506 15.0051 0 0 0
10.7164 8.86835 13.8943 0 0 0
10.6507 8.89741 12.8312 0 0 0
10.573 8.92676 11.772 0 0 0
10.5814 8.95235 10.753 0 0 0
10.6115 8.97689 9.74821 0 0 0
10.7404 8.99728 8.7832 0 0 0
11.0113 9.01188 7.86859 0 0 0
11.6079 9.01349 7.05785 0 0 0
12.8073 8.99146 6.42456 0 0 0
14.8184 8.93808 6.00985 0 0 0
17.77 8.84904 5.82299 0 0 0
21.099 8.74691 5.67941 0 0 0
24.3087 8.65106 5.43738 0 0 0
28.1949 8.53106 5.30053 0 0 0
32.4304 8.39982 5.16895 0 0 0
36.6046 8.27304 4.93831 0 0 0
11.6989 9.5139 18.5692 0 0 0
10.8719 9.56649 17.1299 0 0 0
10.5762 9.60064 15.9435 0 0 0
10.4748 9.62801 14.8515 0 0 0
10.3593 9.65562 13.7634 0 0 0
10.2653 9.6823 12.6935 0 0 0
10.2686 9.70563 11.6693 0 0 0
10.2676 9.72893 10.6504 0 0 0
10.2888 9.75137 9.64617 0 0 0
10.4121 9.77044 8.68298 0 0 0
10.6749 9.78505 7.76951 0 0 0
11.2701 9.78931 6.96222 0 0 0
12.6631 9.76914 6.3922 0 0 0
15.3974 9.70854 6.19263 0 0 0
17.703 9.6622 5.81637 0 0 0
21.0371 9.58597 5.67533 0 0 0
24.216 9.51591 5.42632 0 0 0
27.9921 9.42965 5.26341 0 0 0
32.2829 9.33004 5.14781 0 0 0
36.9708 9.22088 5.03653 0 0 0
11.2633 10.3199 18.386 0 0 0
10.7012 10.3556 17.0674 0 0 0
10.4617 10.383 15.9068 0 0 0
10.5449 10.4023 14.8922 0 0 0
10.5022 10.4245 13.8323 0 0 0
10.4398 10.447 12.7729 0 0 0
10.4135 10.4685 11.7355 0 0 0
10.2783 10.4924 10.666 0 0 0
10.2154 10.5144 9.63191 0 0 0
10.3081 10.5327 8.65911 0 0 0
10.5536 10.5475 7.74117 0 0 0
11.1278 10.5548 6.92863 0 0 0
12.5883 10.5428 6.38108 0 0 0
14.6199 10.5187 5.97537 0 0 0
17.6713 10.4734 5.81974 0 0 0
20.8048 10.4276 5.6248 0 0 0
23.9863 10.3821 5.37943 0 0 0
27.6805 10.327 5.19903 0 0 0
31.759 10.2656 5.03656 0 0 0
36.0732 10.2009 4.84619 0 0 0
11.0655 11.1142 18.3092 0 0 0
10.6913 11.1391 17.0751 0 0 0
10.4695 11.1614 15.922 0 0 0
10.399 11.1811 14.8439 0 0 0
10.3558 11.2003 13.7856 0 0 0
10.3349 11.219 12.7439 0 0 0
10.2876 11.2379 11.6999 0 0 0
10.335 11.2554 10.6983 0 0 0
10.3347 11.2734 9.68558 0 0 0
10.3857 11.2906 8.69718 0 0 0
10.5948 11.3055 7.7663 0 0 0
11.1482 11.3157 6.94674 0 0 0
12.614 11.3138 6.40073 0 0 0
14.173 11.3111 5.85547 0 0 0
17.0495 11.2918 5.65562 0 0 0
20.652 11.2642 5.59586 0 0 0
23.8593 11.243 5.35934 0 0 0
27.622 11.216 5.19794 0 0 0
31.8945 11.1841 5.08304 0 0 0
35.2955 11.1642 4.68303 0 0 0
12.0884 11.8965 18.7805 0 0 0
11.431 11.9174 17.41 0 0 0
11.1917 11.9353 16.2404 0 0 0
11.0473 11.9523 15.1231 0 0 0
10.962 11.9689 14.04 0 0 0
10.8791 11.9852 12.967 0 0 0
10.8585 12.0011 11.9264 0 0 0
10.8427 12.0169 10.895 0 0 0
10.9034 12.0321 9.89787 0 0 0
10.9393 12.0474 8.89763 0 0 0
11.0772 12.062 7.93687 0 0 0
11.512 12.0752 7.07406 0 0 0
12.6991 12.0849 6.4386 0 0 0
14.6198 12.0916 5.99934 0 0 0
17.4582 12.0949 5.78396 0 0 0
20.6881 12.0974 5.61844 0 0 0
23.7871 12.1015 5.35355 0 0 0
27.8468 12.1028 5.26782 0 0 0
32.2289 12.1042 5.17724 0 0 0
38.3431 12.1009 5.39436 0 0 0
11.4776 12.7075 17.4424 0 0 0
11.2476 12.7205 16.2761 0 0 0
11.0808 12.7335 15.1488 0 0 0
10.9677 12.7466 14.0541 0 0 0
10.8995 12.7596 12.9867 0 0 0
10.8528 12.7726 11.936 0 0 0
10.8581 12.7857 10.9124 0 0 0
10.8915 12.7988 9.90536 0 0 0
10.9626 12.812 8.91725 0 0 0
11.1251 12.8254 7.96433 0 0 0
11.5511 12.8398 7.09819 0 0 0
12.8794 12.8579 6.50571 0 0 0
14.9503 12.8794 6.10898 0 0 0
17.8729 12.9051 5.91413 0 0 0
21.0775 12.9328 5.73743 0 0 0
24.499 12.9623 5.55301 0 0 0
28.6392 12.9962 5.48006 0 0 0
30.531 13.02 4.78433 0 0 0
11.6096 13.4993 17.5122 0 0 0
11.3677 13.5075 16.3392 0 0 0
11.2128 13.5165 15.2152 0 0 0
11.1072 13.526 14.1219 0 0 0
11.0078 13.5354 13.0406 0 0 0
11.0242 13.5462 12.0124 0 0 0
10.9966 13.5564 10.9747 0 0 0
10.9947 13.5668 9.9535 0 0 0
11.1185 13.5786 8.98216 0 0 0
11.2853 13.591 8.02883 0 0 0
11.7428 13.6071 7.17088 0 0 0
13.1773 13.6356 6.60893 0 0 0
15.5262 13.6761 6.29124 0 0 0
18.5603 13.7261 6.12191 0 0 0
21.8127 13.7795 5.95094 0 0 0
25.746 13.8425 5.89278 0 0 0
30.0936 13.9119 5.85856 0 0 0
30.2274 13.9256 4.72539 0 0 0
12.088 14.3007 17.7334 0 0 0
11.7379 14.3017 16.5084 0 0 0
11.5459 14.306 15.3646 0 0 0
11.4177 14.3114 14.2582 0 0 0
11.3526 14.3181 13.1865 0 0 0
11.2878 14.3247 12.1235 0 0 0
11.2665 14.3322 11.0849 0 0 0
11.3206 14.3412 10.0803 0 0 0
11.378 14.3503 9.08247 0 0 0
11.6207 14.3632 8.15118 0 0 0
12.1227 14.3817 7.30355 0 0 0
13.7834 14.4251 6.80687 0 0 0
16.4569 14.4905 6.57852 0 0 0
19.5539 14.5655 6.41696 0 0 0
22.7792 14.6438 6.22785 0 0 0
27.111 14.7467 6.2638 0 0 0
12.4281 15.1122 16.8138 0 0 0
12.215 15.1114 15.6528 0 0 0
12.0555 15.1121 14.5257 0 0 0
11.9961 15.1158 13.4486 0 0 0
11.9479 15.1198 12.3841 0 0 0
11.9144 15.1241 11.3332 0 0 0
11.9297 15.1299 10.3073 0 0 0
12.0449 15.1387 9.32207 0 0 0
12.2338 15.1496 8.36528 0 0 0
12.7457 15.1703 7.51379 0 0 0
14.6912 15.2342 7.09765 0 0 0
17.5628 15.3263 6.91787 0 0 0
20.619 15.4244 6.73263 0 0 0
24.3168 15.5422 6.66106 0 0 0
28.638 15.6794 6.67765 0 0 0
13.4072 15.9462 17.2422 0 0 0
12.9648 15.9319 15.9746 0 0 0
12.8004 15.9284 14.8364 0 0 0
12.6968 15.9272 13.7331 0 0 0
12.6338 15.9275 12.6547 0 0 0
12.606 15.9292 11.5977 0 0 0
12.6412 15.9333 10.5707 0 0 0
12.7049 15.9385 9.55949 0 0 0
12.8826 15.9481 8.59132 0 0 0
13.5206 15.9756 7.77261 0 0 0
15.8558 16.0691 7.46755 0 0 0
18.7478 16.1845 7.28096 0 0 0
21.8485 16.3081 7.09532 0 0 0
25.8155 16.4656 7.08407 0 0 0
13.8351 16.7717 16.3463 0 0 0
13.5985 16.7606 15.1686 0 0 0
13.4538 16.7538 14.0397 0 0 0
13.372 16.75 12.9451 0 0 0
13.3472 16.7489 11.8805 0 0 0
13.3442 16.7489 10.8312 0 0 0
13.414 16.7524 9.81386 0 0 0
13.606 16.7616 8.8422 0 0 0
14.6049 16.8093 8.13028 0 0 0
17.1586 16.931 7.88027 0 0 0
20.0565 17.0691 7.68097 0 0 0
23.3882 17.2278 7.54673 0 0 0
14.5499 17.613 14.4784 0 0 0
14.3999 17.602 13.3451 0 0 0
14.3561 17.5969 12.2613 0 0 0
14.3783 17.5956 11.209 0 0 0
14.4539 17.5973 10.1816 0 0 0
15.8679 17.6745 9.60174 0 0 0
15.0155 18.4399 12.5146 0 0 0
