ply
format ascii 1.0
element vertex 124
property float x
property float y
property float z
property uchar red
property uchar green
property uchar blue
end_header
39.3948 8.20325 5.70682 0 0 0
39.5732 8.17718 6.78282 0 0 0
39.5113 7.89167 15.8968 0 0 0
40.2156 9.02933 5.94343 0 0 0
40.1143 8.99361 6.94315 0 0 0
37.1014 8.88373 7.27388 0 0 0
18.7296 8.25423 8.03975 0 0 0
16.607 8.15644 8.90187 0 0 0
40.5705 8.74476 15.0891 0 0 0
40.7369 8.71743 16.1021 0 0 0
18.9592 7.94503 17.8188 0 0 0
43.4769 9.91441 5.80014 0 0 0
43.7731 9.88576 6.86608 0 0 0
43.8707 9.85415 7.87446 0 0 0
44.0644 9.82436 8.89935 0 0 0
44.2762 9.79513 9.92056 0 0 0
44.3089 9.76301 10.8967 0 0 0
44.123 9.72707 11.826 0 0 0
43.9957 9.69219 12.7668 0 0 0
43.863 9.65722 13.7061 0 0 0
41.7176 9.58373 14.3145 0 0 0
41.0789 9.5382 15.1967 0 0 0
41.0103 9.50365 16.1707 0 0 0
19.6226 8.95692 16.7261 0 0 0
19.6711 8.91762 17.9266 0 0 0
43.8787 10.6895 5.93441 0 0 0
44.023 10.656 6.95773 0 0 0
44.1191 10.6223 7.96292 0 0 0
44.402 10.5904 9.00537 0 0 0
44.6901 10.5588 10.0394 0 0 0
44.7552 10.5256 11.0177 0 0 0
44.6524 10.4909 11.9584 0 0 0
44.5195 10.4559 12.8925 0 0 0
44.5383 10.4226 13.8526 0 0 0
44.5631 10.3894 14.8101 0 0 0
44.2921 10.3531 15.7184 0 0 0
41.5665 10.2885 16.2794 0 0 0
37.2507 10.2033 16.6851 0 0 0
32.2179 10.1062 17.0916 0 0 0
26.6066 9.9982 17.5365 0 0 0
20.5056 9.8799 18.0463 0 0 0
43.2009 11.4591 5.78638 0 0 0
43.3159 11.4227 6.80972 0 0 0
43.5486 11.3866 7.85527 0 0 0
43.7042 11.3507 8.87475 0 0 0
43.931 11.3151 9.90292 0 0 0
44.0945 11.2798 10.9097 0 0 0
44.0316 11.2445 11.8654 0 0 0
44.1074 11.2094 12.8447 0 0 0
44.3592 11.1749 13.8498 0 0 0
44.4123 11.1402 14.8138 0 0 0
44.3703 11.1054 15.7588 0 0 0
41.6702 11.0627 16.3234 0 0 0
37.026 11.0112 16.686 0 0 0
32.782 10.9579 17.192 0 0 0
27.2733 10.8961 17.644 0 0 0
20.918 10.8263 18.1233 0 0 0
13.2819 10.7455 18.6169 0 0 0
43.1711 12.2339 5.80784 0 0 0
43.255 12.1955 6.82368 0 0 0
43.4281 12.1565 7.85554 0 0 0
43.6784 12.1172 8.8978 0 0 0
43.9109 12.0783 9.92737 0 0 0
44.0722 12.0403 10.9339 0 0 0
43.9823 12.0044 11.8845 0 0 0
43.8848 11.9686 12.8322 0 0 0
43.8307 11.9325 13.7864 0 0 0
43.8322 11.8962 14.7475 0 0 0
43.8648 11.8599 15.7101 0 0 0
41.5359 11.8363 16.3335 0 0 0
37.5604 11.8192 16.7868 0 0 0
32.7935 11.8026 17.2253 0 0 0
27.165 11.786 17.6656 0 0 0
20.9001 11.7674 18.157 0 0 0
12.7088 11.7506 18.6036 0 0 0
42.4654 12.9434 7.6549 0 0 0
43.5056 12.8866 8.88741 0 0 0
43.9057 12.8415 9.95508 0 0 0
44.061 12.8009 10.9603 0 0 0
43.9781 12.7644 11.9123 0 0 0
43.8877 12.728 12.8615 0 0 0
43.731 12.6927 13.7978 0 0 0
43.7776 12.6544 14.7672 0 0 0
43.8196 12.6163 15.7317 0 0 0
41.1856 12.6152 16.3131 0 0 0
36.95 12.6335 16.7373 0 0 0
32.036 12.6572 17.1659 0 0 0
26.3244 12.6869 17.6069 0 0 0
19.8298 12.7216 18.0861 0 0 0
33.3723 13.8704 7.70364 0 0 0
33.9745 13.8115 8.91496 0 0 0
36.3757 13.7094 10.46 0 0 0
38.7926 13.6093 11.9525 0 0 0
38.5744 13.5732 12.9328 0 0 0
38.4977 13.5338 13.9374 0 0 0
38.0213 13.5035 14.8794 0 0 0
36.5512 13.495 15.6877 0 0 0
34.4842 13.4984 16.4457 0 0 0
29.7466 13.5571 16.923 0 0 0
23.6899 13.6394 17.352 0 0 0
32.1134 14.7657 7.46374 0 0 0
32.6934 14.7004 8.6839 0 0 0
32.9348 14.6468 9.82189 0 0 0
33.1494 14.5945 10.946 0 0 0
33.2804 14.5453 12.0474 0 0 0
33.3932 14.4968 13.1393 0 0 0
33.4463 14.4505 14.2162 0 0 0
33.3408 14.4092 15.2659 0 0 0
32.6882 14.3845 16.243 0 0 0
27.5496 14.4926 16.6927 0 0 0
21.2859 14.6292 17.124 0 0 0
31.2969 15.6159 8.43001 0 0 0
31.7834 15.548 9.63056 0 0 0
32.0348 15.4904 10.7737 0 0 0
32.1752 15.4377 11.8886 0 0 0
32.2928 15.3862 12.9931 0 0 0
32.3436 15.3375 14.0812 0 0 0
32.2079 15.2964 15.1384 0 0 0
30.6293 15.3109 16.0072 0 0 0
24.8451 15.4842 16.403 0 0 0
30.3352 16.3847 11.6039 0 0 0
30.821 16.312 12.7875 0 0 0
31.1535 16.2473 13.9338 0 0 0
30.8457 16.2135 14.9794 0 0 0
